<svg width="196" height="29" viewBox="0 0 627 94" fill="none" xmlns="http://www.w3.org/2000/svg">
<path d="M34.375 51.7045V21.6364H48.8977V74H34.9545V64.4886H34.4091C33.2273 67.5568 31.2614 70.0227 28.5114 71.8864C25.7841 73.75 22.4545 74.6818 18.5227 74.6818C15.0227 74.6818 11.9432 73.8864 9.28409 72.2955C6.625 70.7045 4.54545 68.4432 3.04545 65.5114C1.56818 62.5795 0.818182 59.0682 0.795455 54.9773V21.6364H15.3182V52.3864C15.3409 55.4773 16.1705 57.9205 17.8068 59.7159C19.4432 61.5114 21.6364 62.4091 24.3864 62.4091C26.1364 62.4091 27.7727 62.0114 29.2955 61.2159C30.8182 60.3977 32.0455 59.1932 32.9773 57.6023C33.9318 56.0114 34.3977 54.0455 34.375 51.7045ZM97.3624 36.5682L84.0669 37.3864C83.8397 36.25 83.351 35.2273 82.601 34.3182C81.851 33.3864 80.8624 32.6477 79.6351 32.1023C78.4306 31.5341 76.9874 31.25 75.3056 31.25C73.0556 31.25 71.1578 31.7273 69.6124 32.6818C68.0669 33.6136 67.2942 34.8636 67.2942 36.4318C67.2942 37.6818 67.7942 38.7386 68.7942 39.6023C69.7942 40.4659 71.5101 41.1591 73.9419 41.6818L83.4192 43.5909C88.5101 44.6364 92.3056 46.3182 94.8056 48.6364C97.3056 50.9545 98.5556 54 98.5556 57.7727C98.5556 61.2045 97.5442 64.2159 95.5215 66.8068C93.5215 69.3977 90.7715 71.4205 87.2715 72.875C83.7942 74.3068 79.7828 75.0227 75.2374 75.0227C68.3056 75.0227 62.7828 73.5795 58.6692 70.6932C54.5783 67.7841 52.1806 63.8295 51.476 58.8295L65.7601 58.0795C66.1919 60.1932 67.2374 61.8068 68.8965 62.9205C70.5556 64.0114 72.6806 64.5568 75.2715 64.5568C77.8169 64.5568 79.8624 64.0682 81.4078 63.0909C82.976 62.0909 83.7715 60.8068 83.7942 59.2386C83.7715 57.9205 83.2147 56.8409 82.1237 56C81.0328 55.1364 79.351 54.4773 77.0783 54.0227L68.0101 52.2159C62.8965 51.1932 59.0897 49.4205 56.5897 46.8977C54.1124 44.375 52.8737 41.1591 52.8737 37.25C52.8737 33.8864 53.7828 30.9886 55.601 28.5568C57.4419 26.125 60.0215 24.25 63.3397 22.9318C66.6806 21.6136 70.5897 20.9545 75.0669 20.9545C81.6806 20.9545 86.8851 22.3523 90.6806 25.1477C94.4987 27.9432 96.726 31.75 97.3624 36.5682ZM124.844 75.0227C119.458 75.0227 114.821 73.9318 110.935 71.75C107.071 69.5455 104.094 66.4318 102.003 62.4091C99.9123 58.3636 98.8668 53.5795 98.8668 48.0568C98.8668 42.6705 99.9123 37.9432 102.003 33.875C104.094 29.8068 107.037 26.6364 110.833 24.3636C114.651 22.0909 119.128 20.9545 124.265 20.9545C127.719 20.9545 130.935 21.5114 133.912 22.625C136.912 23.7159 139.526 25.3636 141.753 27.5682C144.003 29.7727 145.753 32.5455 147.003 35.8864C148.253 39.2045 148.878 43.0909 148.878 47.5455V51.5341H104.662V42.5341H135.208C135.208 40.4432 134.753 38.5909 133.844 36.9773C132.935 35.3636 131.674 34.1023 130.06 33.1932C128.469 32.2614 126.617 31.7955 124.503 31.7955C122.299 31.7955 120.344 32.3068 118.64 33.3295C116.958 34.3295 115.64 35.6818 114.685 37.3864C113.73 39.0682 113.242 40.9432 113.219 43.0114V51.5682C113.219 54.1591 113.696 56.3977 114.651 58.2841C115.628 60.1705 117.003 61.625 118.776 62.6477C120.549 63.6705 122.651 64.1818 125.083 64.1818C126.696 64.1818 128.174 63.9545 129.515 63.5C130.855 63.0455 132.003 62.3636 132.958 61.4545C133.912 60.5455 134.64 59.4318 135.14 58.1136L148.571 59C147.89 62.2273 146.492 65.0455 144.378 67.4545C142.287 69.8409 139.583 71.7045 136.265 73.0455C132.969 74.3636 129.162 75.0227 124.844 75.0227ZM151.635 74V21.6364H165.715V30.7727H166.26C167.215 27.5227 168.817 25.0682 171.067 23.4091C173.317 21.7273 175.908 20.8864 178.84 20.8864C179.567 20.8864 180.351 20.9318 181.192 21.0227C182.033 21.1136 182.772 21.2386 183.408 21.3977V34.2841C182.726 34.0795 181.783 33.8977 180.579 33.7386C179.374 33.5795 178.272 33.5 177.272 33.5C175.135 33.5 173.226 33.9659 171.545 34.8977C169.885 35.8068 168.567 37.0795 167.59 38.7159C166.635 40.3523 166.158 42.2386 166.158 44.375V74H151.635ZM184.197 21.6364H198.719V76.5909C198.719 80.6364 197.924 83.9091 196.333 86.4091C194.742 88.9091 192.458 90.7386 189.481 91.8977C186.526 93.0568 182.992 93.6364 178.879 93.6364C178.379 93.6364 177.901 93.625 177.447 93.6023C176.969 93.6023 176.469 93.5909 175.947 93.5682V82.2159C176.333 82.2386 176.674 82.25 176.969 82.25C177.242 82.2727 177.538 82.2841 177.856 82.2841C180.197 82.2841 181.833 81.7841 182.765 80.7841C183.719 79.8068 184.197 78.3295 184.197 76.3523V21.6364ZM191.424 14.8864C189.288 14.8864 187.447 14.1705 185.901 12.7386C184.356 11.2841 183.583 9.54545 183.583 7.52272C183.583 5.52272 184.356 3.80682 185.901 2.375C187.447 0.920452 189.288 0.193178 191.424 0.193178C193.606 0.193178 195.458 0.920452 196.981 2.375C198.526 3.80682 199.299 5.52272 199.299 7.52272C199.299 9.54545 198.526 11.2841 196.981 12.7386C195.458 14.1705 193.606 14.8864 191.424 14.8864ZM227.292 75.0227C221.997 75.0227 217.417 73.8977 213.553 71.6477C209.712 69.375 206.747 66.2159 204.656 62.1705C202.565 58.1023 201.519 53.3864 201.519 48.0227C201.519 42.6136 202.565 37.8864 204.656 33.8409C206.747 29.7727 209.712 26.6136 213.553 24.3636C217.417 22.0909 221.997 20.9545 227.292 20.9545C232.587 20.9545 237.156 22.0909 240.997 24.3636C244.86 26.6136 247.837 29.7727 249.928 33.8409C252.019 37.8864 253.065 42.6136 253.065 48.0227C253.065 53.3864 252.019 58.1023 249.928 62.1705C247.837 66.2159 244.86 69.375 240.997 71.6477C237.156 73.8977 232.587 75.0227 227.292 75.0227ZM227.36 63.7727C229.769 63.7727 231.781 63.0909 233.394 61.7273C235.008 60.3409 236.224 58.4545 237.042 56.0682C237.883 53.6818 238.303 50.9659 238.303 47.9205C238.303 44.875 237.883 42.1591 237.042 39.7727C236.224 37.3864 235.008 35.5 233.394 34.1136C231.781 32.7273 229.769 32.0341 227.36 32.0341C224.928 32.0341 222.883 32.7273 221.224 34.1136C219.587 35.5 218.349 37.3864 217.508 39.7727C216.69 42.1591 216.281 44.875 216.281 47.9205C216.281 50.9659 216.69 53.6818 217.508 56.0682C218.349 58.4545 219.587 60.3409 221.224 61.7273C222.883 63.0909 224.928 63.7727 227.36 63.7727ZM289.368 51.7045V21.6364H303.89V74H289.947V64.4886H289.402C288.22 67.5568 286.254 70.0227 283.504 71.8864C280.777 73.75 277.447 74.6818 273.515 74.6818C270.015 74.6818 266.936 73.8864 264.277 72.2955C261.618 70.7045 259.538 68.4432 258.038 65.5114C256.561 62.5795 255.811 59.0682 255.788 54.9773V21.6364H270.311V52.3864C270.333 55.4773 271.163 57.9205 272.799 59.7159C274.436 61.5114 276.629 62.4091 279.379 62.4091C281.129 62.4091 282.765 62.0114 284.288 61.2159C285.811 60.3977 287.038 59.1932 287.97 57.6023C288.924 56.0114 289.39 54.0455 289.368 51.7045ZM308.787 74V21.6364H322.866V30.7727H323.412C324.366 27.5227 325.969 25.0682 328.219 23.4091C330.469 21.7273 333.059 20.8864 335.991 20.8864C336.719 20.8864 337.503 20.9318 338.344 21.0227C339.184 21.1136 339.923 21.2386 340.559 21.3977V34.2841C339.878 34.0795 338.934 33.8977 337.73 33.7386C336.525 33.5795 335.423 33.5 334.423 33.5C332.287 33.5 330.378 33.9659 328.696 34.8977C327.037 35.8068 325.719 37.0795 324.741 38.7159C323.787 40.3523 323.309 42.2386 323.309 44.375V74H308.787ZM355.871 43.7273V74H341.348V21.6364H355.189V30.875H355.802C356.962 27.8295 358.905 25.4205 361.632 23.6477C364.359 21.8523 367.666 20.9545 371.552 20.9545C375.189 20.9545 378.359 21.75 381.064 23.3409C383.768 24.9318 385.871 27.2045 387.371 30.1591C388.871 33.0909 389.621 36.5909 389.621 40.6591V74H375.098V43.25C375.121 40.0455 374.302 37.5455 372.643 35.75C370.984 33.9318 368.7 33.0227 365.791 33.0227C363.837 33.0227 362.109 33.4432 360.609 34.2841C359.132 35.125 357.973 36.3523 357.132 37.9659C356.314 39.5568 355.893 41.4773 355.871 43.7273ZM418.21 75.0227C412.824 75.0227 408.188 73.9318 404.301 71.75C400.438 69.5455 397.46 66.4318 395.369 62.4091C393.279 58.3636 392.233 53.5795 392.233 48.0568C392.233 42.6705 393.279 37.9432 395.369 33.875C397.46 29.8068 400.404 26.6364 404.199 24.3636C408.017 22.0909 412.494 20.9545 417.631 20.9545C421.085 20.9545 424.301 21.5114 427.279 22.625C430.279 23.7159 432.892 25.3636 435.119 27.5682C437.369 29.7727 439.119 32.5455 440.369 35.8864C441.619 39.2045 442.244 43.0909 442.244 47.5455V51.5341H398.029V42.5341H428.574C428.574 40.4432 428.119 38.5909 427.21 36.9773C426.301 35.3636 425.04 34.1023 423.426 33.1932C421.835 32.2614 419.983 31.7955 417.869 31.7955C415.665 31.7955 413.71 32.3068 412.006 33.3295C410.324 34.3295 409.006 35.6818 408.051 37.3864C407.097 39.0682 406.608 40.9432 406.585 43.0114V51.5682C406.585 54.1591 407.063 56.3977 408.017 58.2841C408.994 60.1705 410.369 61.625 412.142 62.6477C413.915 63.6705 416.017 64.1818 418.449 64.1818C420.063 64.1818 421.54 63.9545 422.881 63.5C424.222 63.0455 425.369 62.3636 426.324 61.4545C427.279 60.5455 428.006 59.4318 428.506 58.1136L441.938 59C441.256 62.2273 439.858 65.0455 437.744 67.4545C435.654 69.8409 432.949 71.7045 429.631 73.0455C426.335 74.3636 422.529 75.0227 418.21 75.0227ZM452.561 93.6364C450.72 93.6364 448.993 93.4886 447.38 93.1932C445.789 92.9205 444.47 92.5682 443.425 92.1364L446.698 81.2955C448.402 81.8182 449.936 82.1023 451.3 82.1477C452.686 82.1932 453.88 81.875 454.88 81.1932C455.902 80.5114 456.732 79.3523 457.368 77.7159L458.22 75.5L439.436 21.6364H454.709L465.55 60.0909H466.095L477.039 21.6364H492.414L472.061 79.6591C471.084 82.4773 469.755 84.9318 468.073 87.0227C466.414 89.1364 464.311 90.7614 461.766 91.8977C459.22 93.0568 456.152 93.6364 452.561 93.6364ZM536.694 36.5682L523.398 37.3864C523.171 36.25 522.682 35.2273 521.932 34.3182C521.182 33.3864 520.194 32.6477 518.966 32.1023C517.762 31.5341 516.319 31.25 514.637 31.25C512.387 31.25 510.489 31.7273 508.944 32.6818C507.398 33.6136 506.625 34.8636 506.625 36.4318C506.625 37.6818 507.125 38.7386 508.125 39.6023C509.125 40.4659 510.841 41.1591 513.273 41.6818L522.75 43.5909C527.841 44.6364 531.637 46.3182 534.137 48.6364C536.637 50.9545 537.887 54 537.887 57.7727C537.887 61.2045 536.875 64.2159 534.853 66.8068C532.853 69.3977 530.103 71.4205 526.603 72.875C523.125 74.3068 519.114 75.0227 514.569 75.0227C507.637 75.0227 502.114 73.5795 498 70.6932C493.91 67.7841 491.512 63.8295 490.807 58.8295L505.091 58.0795C505.523 60.1932 506.569 61.8068 508.228 62.9205C509.887 64.0114 512.012 64.5568 514.603 64.5568C517.148 64.5568 519.194 64.0682 520.739 63.0909C522.307 62.0909 523.103 60.8068 523.125 59.2386C523.103 57.9205 522.546 56.8409 521.455 56C520.364 55.1364 518.682 54.4773 516.41 54.0227L507.341 52.2159C502.228 51.1932 498.421 49.4205 495.921 46.8977C493.444 44.375 492.205 41.1591 492.205 37.25C492.205 33.8864 493.114 30.9886 494.932 28.5568C496.773 26.125 499.353 24.25 502.671 22.9318C506.012 21.6136 509.921 20.9545 514.398 20.9545C521.012 20.9545 526.216 22.3523 530.012 25.1477C533.83 27.9432 536.057 31.75 536.694 36.5682ZM548.8 74.8864C546.55 74.8864 544.619 74.0909 543.005 72.5C541.414 70.8864 540.619 68.9545 540.619 66.7045C540.619 64.4773 541.414 62.5682 543.005 60.9773C544.619 59.3864 546.55 58.5909 548.8 58.5909C550.982 58.5909 552.891 59.3864 554.528 60.9773C556.164 62.5682 556.982 64.4773 556.982 66.7045C556.982 68.2045 556.596 69.5795 555.823 70.8295C555.073 72.0568 554.084 73.0455 552.857 73.7955C551.63 74.5227 550.278 74.8864 548.8 74.8864ZM577.117 74.9886C573.776 74.9886 570.799 74.4091 568.185 73.25C565.572 72.0682 563.504 70.3295 561.981 68.0341C560.481 65.7159 559.731 62.8295 559.731 59.375C559.731 56.4659 560.265 54.0227 561.333 52.0455C562.401 50.0682 563.856 48.4773 565.697 47.2727C567.538 46.0682 569.629 45.1591 571.97 44.5455C574.333 43.9318 576.81 43.5 579.401 43.25C582.447 42.9318 584.901 42.6364 586.765 42.3636C588.629 42.0682 589.981 41.6364 590.822 41.0682C591.663 40.5 592.083 39.6591 592.083 38.5455V38.3409C592.083 36.1818 591.401 34.5114 590.038 33.3295C588.697 32.1477 586.788 31.5568 584.31 31.5568C581.697 31.5568 579.617 32.1364 578.072 33.2955C576.526 34.4318 575.504 35.8636 575.004 37.5909L561.572 36.5C562.254 33.3182 563.595 30.5682 565.595 28.25C567.595 25.9091 570.174 24.1136 573.333 22.8636C576.515 21.5909 580.197 20.9545 584.379 20.9545C587.288 20.9545 590.072 21.2955 592.731 21.9773C595.413 22.6591 597.788 23.7159 599.856 25.1477C601.947 26.5795 603.595 28.4205 604.799 30.6705C606.004 32.8977 606.606 35.5682 606.606 38.6818V74H592.833V66.7386H592.424C591.583 68.375 590.458 69.8182 589.049 71.0682C587.64 72.2955 585.947 73.2614 583.97 73.9659C581.992 74.6477 579.708 74.9886 577.117 74.9886ZM581.276 64.9659C583.413 64.9659 585.299 64.5455 586.935 63.7045C588.572 62.8409 589.856 61.6818 590.788 60.2273C591.72 58.7727 592.185 57.125 592.185 55.2841V49.7273C591.731 50.0227 591.106 50.2955 590.31 50.5455C589.538 50.7727 588.663 50.9886 587.685 51.1932C586.708 51.375 585.731 51.5455 584.754 51.7045C583.776 51.8409 582.89 51.9659 582.095 52.0795C580.39 52.3295 578.901 52.7273 577.629 53.2727C576.356 53.8182 575.367 54.5568 574.663 55.4886C573.958 56.3977 573.606 57.5341 573.606 58.8977C573.606 60.875 574.322 62.3864 575.754 63.4318C577.208 64.4545 579.049 64.9659 581.276 64.9659ZM611.153 74V21.6364H625.676V74H611.153ZM618.448 14.8864C616.289 14.8864 614.437 14.1705 612.892 12.7386C611.369 11.2841 610.607 9.54545 610.607 7.52272C610.607 5.52272 611.369 3.80682 612.892 2.375C614.437 0.920452 616.289 0.193178 618.448 0.193178C620.607 0.193178 622.448 0.920452 623.971 2.375C625.517 3.80682 626.289 5.52272 626.289 7.52272C626.289 9.54545 625.517 11.2841 623.971 12.7386C622.448 14.1705 620.607 14.8864 618.448 14.8864Z" fill="url(#paint0_linear_623_41)"/>
<defs>
<linearGradient id="paint0_linear_623_41" x1="313.5" y1="-19" x2="313.5" y2="97" gradientUnits="userSpaceOnUse">
<stop offset="0.134615" stop-color="white"/>
<stop offset="1" stop-color="#F1F1F1"/>
</linearGradient>
</defs>
</svg>
