<svg width="640" height="94" viewBox="0 0 640 94" fill="none" xmlns="http://www.w3.org/2000/svg">
<path d="M34.375 51.7045V21.6364H48.8977V74H34.9545V64.4886H34.4091C33.2273 67.5568 31.2614 70.0227 28.5114 71.8864C25.7841 73.75 22.4545 74.6818 18.5227 74.6818C15.0227 74.6818 11.9432 73.8864 9.28409 72.2955C6.625 70.7045 4.54545 68.4432 3.04545 65.5114C1.56818 62.5795 0.818182 59.0682 0.795455 54.9773V21.6364H15.3182V52.3864C15.3409 55.4773 16.1705 57.9205 17.8068 59.7159C19.4432 61.5114 21.6364 62.4091 24.3864 62.4091C26.1364 62.4091 27.7727 62.0114 29.2955 61.2159C30.8182 60.3977 32.0455 59.1932 32.9773 57.6023C33.9318 56.0114 34.3977 54.0455 34.375 51.7045ZM98.3224 36.5682L85.0269 37.3864C84.7997 36.25 84.311 35.2273 83.561 34.3182C82.811 33.3864 81.8224 32.6477 80.5951 32.1023C79.3906 31.5341 77.9474 31.25 76.2656 31.25C74.0156 31.25 72.1178 31.7273 70.5724 32.6818C69.0269 33.6136 68.2542 34.8636 68.2542 36.4318C68.2542 37.6818 68.7542 38.7386 69.7542 39.6023C70.7542 40.4659 72.4701 41.1591 74.9019 41.6818L84.3792 43.5909C89.4701 44.6364 93.2656 46.3182 95.7656 48.6364C98.2656 50.9545 99.5156 54 99.5156 57.7727C99.5156 61.2045 98.5042 64.2159 96.4815 66.8068C94.4815 69.3977 91.7315 71.4205 88.2315 72.875C84.7542 74.3068 80.7428 75.0227 76.1974 75.0227C69.2656 75.0227 63.7428 73.5795 59.6292 70.6932C55.5383 67.7841 53.1406 63.8295 52.436 58.8295L66.7201 58.0795C67.1519 60.1932 68.1974 61.8068 69.8565 62.9205C71.5156 64.0114 73.6406 64.5568 76.2315 64.5568C78.7769 64.5568 80.8224 64.0682 82.3678 63.0909C83.936 62.0909 84.7315 60.8068 84.7542 59.2386C84.7315 57.9205 84.1747 56.8409 83.0837 56C81.9928 55.1364 80.311 54.4773 78.0383 54.0227L68.9701 52.2159C63.8565 51.1932 60.0497 49.4205 57.5497 46.8977C55.0724 44.375 53.8337 41.1591 53.8337 37.25C53.8337 33.8864 54.7428 30.9886 56.561 28.5568C58.4019 26.125 60.9815 24.25 64.2997 22.9318C67.6406 21.6136 71.5497 20.9545 76.0269 20.9545C82.6406 20.9545 87.8451 22.3523 91.6406 25.1477C95.4587 27.9432 97.686 31.75 98.3224 36.5682ZM126.764 75.0227C121.378 75.0227 116.741 73.9318 112.855 71.75C108.991 69.5455 106.014 66.4318 103.923 62.4091C101.832 58.3636 100.787 53.5795 100.787 48.0568C100.787 42.6705 101.832 37.9432 103.923 33.875C106.014 29.8068 108.957 26.6364 112.753 24.3636C116.571 22.0909 121.048 20.9545 126.185 20.9545C129.639 20.9545 132.855 21.5114 135.832 22.625C138.832 23.7159 141.446 25.3636 143.673 27.5682C145.923 29.7727 147.673 32.5455 148.923 35.8864C150.173 39.2045 150.798 43.0909 150.798 47.5455V51.5341H106.582V42.5341H137.128C137.128 40.4432 136.673 38.5909 135.764 36.9773C134.855 35.3636 133.594 34.1023 131.98 33.1932C130.389 32.2614 128.537 31.7955 126.423 31.7955C124.219 31.7955 122.264 32.3068 120.56 33.3295C118.878 34.3295 117.56 35.6818 116.605 37.3864C115.65 39.0682 115.162 40.9432 115.139 43.0114V51.5682C115.139 54.1591 115.616 56.3977 116.571 58.2841C117.548 60.1705 118.923 61.625 120.696 62.6477C122.469 63.6705 124.571 64.1818 127.003 64.1818C128.616 64.1818 130.094 63.9545 131.435 63.5C132.775 63.0455 133.923 62.3636 134.878 61.4545C135.832 60.5455 136.56 59.4318 137.06 58.1136L150.491 59C149.81 62.2273 148.412 65.0455 146.298 67.4545C144.207 69.8409 141.503 71.7045 138.185 73.0455C134.889 74.3636 131.082 75.0227 126.764 75.0227ZM154.515 74V21.6364H168.595V30.7727H169.14C170.095 27.5227 171.697 25.0682 173.947 23.4091C176.197 21.7273 178.788 20.8864 181.72 20.8864C182.447 20.8864 183.231 20.9318 184.072 21.0227C184.913 21.1136 185.652 21.2386 186.288 21.3977V34.2841C185.606 34.0795 184.663 33.8977 183.459 33.7386C182.254 33.5795 181.152 33.5 180.152 33.5C178.015 33.5 176.106 33.9659 174.425 34.8977C172.765 35.8068 171.447 37.0795 170.47 38.7159C169.515 40.3523 169.038 42.2386 169.038 44.375V74H154.515ZM188.037 21.6364H202.559V76.5909C202.559 80.6364 201.764 83.9091 200.173 86.4091C198.582 88.9091 196.298 90.7386 193.321 91.8977C190.366 93.0568 186.832 93.6364 182.719 93.6364C182.219 93.6364 181.741 93.625 181.287 93.6023C180.809 93.6023 180.309 93.5909 179.787 93.5682V82.2159C180.173 82.2386 180.514 82.25 180.809 82.25C181.082 82.2727 181.378 82.2841 181.696 82.2841C184.037 82.2841 185.673 81.7841 186.605 80.7841C187.559 79.8068 188.037 78.3295 188.037 76.3523V21.6364ZM195.264 14.8864C193.128 14.8864 191.287 14.1705 189.741 12.7386C188.196 11.2841 187.423 9.54545 187.423 7.52272C187.423 5.52272 188.196 3.80682 189.741 2.375C191.287 0.920452 193.128 0.193178 195.264 0.193178C197.446 0.193178 199.298 0.920452 200.821 2.375C202.366 3.80682 203.139 5.52272 203.139 7.52272C203.139 9.54545 202.366 11.2841 200.821 12.7386C199.298 14.1705 197.446 14.8864 195.264 14.8864ZM232.092 75.0227C226.797 75.0227 222.217 73.8977 218.353 71.6477C214.512 69.375 211.547 66.2159 209.456 62.1705C207.365 58.1023 206.319 53.3864 206.319 48.0227C206.319 42.6136 207.365 37.8864 209.456 33.8409C211.547 29.7727 214.512 26.6136 218.353 24.3636C222.217 22.0909 226.797 20.9545 232.092 20.9545C237.387 20.9545 241.956 22.0909 245.797 24.3636C249.66 26.6136 252.637 29.7727 254.728 33.8409C256.819 37.8864 257.865 42.6136 257.865 48.0227C257.865 53.3864 256.819 58.1023 254.728 62.1705C252.637 66.2159 249.66 69.375 245.797 71.6477C241.956 73.8977 237.387 75.0227 232.092 75.0227ZM232.16 63.7727C234.569 63.7727 236.581 63.0909 238.194 61.7273C239.808 60.3409 241.024 58.4545 241.842 56.0682C242.683 53.6818 243.103 50.9659 243.103 47.9205C243.103 44.875 242.683 42.1591 241.842 39.7727C241.024 37.3864 239.808 35.5 238.194 34.1136C236.581 32.7273 234.569 32.0341 232.16 32.0341C229.728 32.0341 227.683 32.7273 226.024 34.1136C224.387 35.5 223.149 37.3864 222.308 39.7727C221.49 42.1591 221.081 44.875 221.081 47.9205C221.081 50.9659 221.49 53.6818 222.308 56.0682C223.149 58.4545 224.387 60.3409 226.024 61.7273C227.683 63.0909 229.728 63.7727 232.16 63.7727ZM295.128 51.7045V21.6364H309.65V74H295.707V64.4886H295.162C293.98 67.5568 292.014 70.0227 289.264 71.8864C286.537 73.75 283.207 74.6818 279.275 74.6818C275.775 74.6818 272.696 73.8864 270.037 72.2955C267.378 70.7045 265.298 68.4432 263.798 65.5114C262.321 62.5795 261.571 59.0682 261.548 54.9773V21.6364H276.071V52.3864C276.093 55.4773 276.923 57.9205 278.559 59.7159C280.196 61.5114 282.389 62.4091 285.139 62.4091C286.889 62.4091 288.525 62.0114 290.048 61.2159C291.571 60.3977 292.798 59.1932 293.73 57.6023C294.684 56.0114 295.15 54.0455 295.128 51.7045ZM315.507 74V21.6364H329.586V30.7727H330.132C331.086 27.5227 332.689 25.0682 334.939 23.4091C337.189 21.7273 339.779 20.8864 342.711 20.8864C343.439 20.8864 344.223 20.9318 345.064 21.0227C345.904 21.1136 346.643 21.2386 347.279 21.3977V34.2841C346.598 34.0795 345.654 33.8977 344.45 33.7386C343.245 33.5795 342.143 33.5 341.143 33.5C339.007 33.5 337.098 33.9659 335.416 34.8977C333.757 35.8068 332.439 37.0795 331.461 38.7159C330.507 40.3523 330.029 42.2386 330.029 44.375V74H315.507ZM363.551 43.7273V74H349.028V21.6364H362.869V30.875H363.482C364.642 27.8295 366.585 25.4205 369.312 23.6477C372.039 21.8523 375.346 20.9545 379.232 20.9545C382.869 20.9545 386.039 21.75 388.744 23.3409C391.448 24.9318 393.551 27.2045 395.051 30.1591C396.551 33.0909 397.301 36.5909 397.301 40.6591V74H382.778V43.25C382.801 40.0455 381.982 37.5455 380.323 35.75C378.664 33.9318 376.38 33.0227 373.471 33.0227C371.517 33.0227 369.789 33.4432 368.289 34.2841C366.812 35.125 365.653 36.3523 364.812 37.9659C363.994 39.5568 363.573 41.4773 363.551 43.7273ZM426.85 75.0227C421.464 75.0227 416.828 73.9318 412.941 71.75C409.078 69.5455 406.1 66.4318 404.009 62.4091C401.919 58.3636 400.873 53.5795 400.873 48.0568C400.873 42.6705 401.919 37.9432 404.009 33.875C406.1 29.8068 409.044 26.6364 412.839 24.3636C416.657 22.0909 421.134 20.9545 426.271 20.9545C429.725 20.9545 432.941 21.5114 435.919 22.625C438.919 23.7159 441.532 25.3636 443.759 27.5682C446.009 29.7727 447.759 32.5455 449.009 35.8864C450.259 39.2045 450.884 43.0909 450.884 47.5455V51.5341H406.669V42.5341H437.214C437.214 40.4432 436.759 38.5909 435.85 36.9773C434.941 35.3636 433.68 34.1023 432.066 33.1932C430.475 32.2614 428.623 31.7955 426.509 31.7955C424.305 31.7955 422.35 32.3068 420.646 33.3295C418.964 34.3295 417.646 35.6818 416.691 37.3864C415.737 39.0682 415.248 40.9432 415.225 43.0114V51.5682C415.225 54.1591 415.703 56.3977 416.657 58.2841C417.634 60.1705 419.009 61.625 420.782 62.6477C422.555 63.6705 424.657 64.1818 427.089 64.1818C428.703 64.1818 430.18 63.9545 431.521 63.5C432.862 63.0455 434.009 62.3636 434.964 61.4545C435.919 60.5455 436.646 59.4318 437.146 58.1136L450.578 59C449.896 62.2273 448.498 65.0455 446.384 67.4545C444.294 69.8409 441.589 71.7045 438.271 73.0455C434.975 74.3636 431.169 75.0227 426.85 75.0227ZM462.161 93.6364C460.32 93.6364 458.593 93.4886 456.98 93.1932C455.389 92.9205 454.07 92.5682 453.025 92.1364L456.298 81.2955C458.002 81.8182 459.536 82.1023 460.9 82.1477C462.286 82.1932 463.48 81.875 464.48 81.1932C465.502 80.5114 466.332 79.3523 466.968 77.7159L467.82 75.5L449.036 21.6364H464.309L475.15 60.0909H475.695L486.639 21.6364H502.014L481.661 79.6591C480.684 82.4773 479.355 84.9318 477.673 87.0227C476.014 89.1364 473.911 90.7614 471.366 91.8977C468.82 93.0568 465.752 93.6364 462.161 93.6364ZM547.254 36.5682L533.958 37.3864C533.731 36.25 533.242 35.2273 532.492 34.3182C531.742 33.3864 530.754 32.6477 529.526 32.1023C528.322 31.5341 526.879 31.25 525.197 31.25C522.947 31.25 521.049 31.7273 519.504 32.6818C517.958 33.6136 517.185 34.8636 517.185 36.4318C517.185 37.6818 517.685 38.7386 518.685 39.6023C519.685 40.4659 521.401 41.1591 523.833 41.6818L533.31 43.5909C538.401 44.6364 542.197 46.3182 544.697 48.6364C547.197 50.9545 548.447 54 548.447 57.7727C548.447 61.2045 547.435 64.2159 545.413 66.8068C543.413 69.3977 540.663 71.4205 537.163 72.875C533.685 74.3068 529.674 75.0227 525.129 75.0227C518.197 75.0227 512.674 73.5795 508.56 70.6932C504.47 67.7841 502.072 63.8295 501.367 58.8295L515.651 58.0795C516.083 60.1932 517.129 61.8068 518.788 62.9205C520.447 64.0114 522.572 64.5568 525.163 64.5568C527.708 64.5568 529.754 64.0682 531.299 63.0909C532.867 62.0909 533.663 60.8068 533.685 59.2386C533.663 57.9205 533.106 56.8409 532.015 56C530.924 55.1364 529.242 54.4773 526.97 54.0227L517.901 52.2159C512.788 51.1932 508.981 49.4205 506.481 46.8977C504.004 44.375 502.765 41.1591 502.765 37.25C502.765 33.8864 503.674 30.9886 505.492 28.5568C507.333 26.125 509.913 24.25 513.231 22.9318C516.572 21.6136 520.481 20.9545 524.958 20.9545C531.572 20.9545 536.776 22.3523 540.572 25.1477C544.39 27.9432 546.617 31.75 547.254 36.5682ZM560.32 74.8864C558.07 74.8864 556.139 74.0909 554.525 72.5C552.934 70.8864 552.139 68.9545 552.139 66.7045C552.139 64.4773 552.934 62.5682 554.525 60.9773C556.139 59.3864 558.07 58.5909 560.32 58.5909C562.502 58.5909 564.411 59.3864 566.048 60.9773C567.684 62.5682 568.502 64.4773 568.502 66.7045C568.502 68.2045 568.116 69.5795 567.343 70.8295C566.593 72.0568 565.604 73.0455 564.377 73.7955C563.15 74.5227 561.798 74.8864 560.32 74.8864ZM589.597 74.9886C586.256 74.9886 583.279 74.4091 580.665 73.25C578.052 72.0682 575.984 70.3295 574.461 68.0341C572.961 65.7159 572.211 62.8295 572.211 59.375C572.211 56.4659 572.745 54.0227 573.813 52.0455C574.881 50.0682 576.336 48.4773 578.177 47.2727C580.018 46.0682 582.109 45.1591 584.45 44.5455C586.813 43.9318 589.29 43.5 591.881 43.25C594.927 42.9318 597.381 42.6364 599.245 42.3636C601.109 42.0682 602.461 41.6364 603.302 41.0682C604.143 40.5 604.563 39.6591 604.563 38.5455V38.3409C604.563 36.1818 603.881 34.5114 602.518 33.3295C601.177 32.1477 599.268 31.5568 596.79 31.5568C594.177 31.5568 592.097 32.1364 590.552 33.2955C589.006 34.4318 587.984 35.8636 587.484 37.5909L574.052 36.5C574.734 33.3182 576.075 30.5682 578.075 28.25C580.075 25.9091 582.654 24.1136 585.813 22.8636C588.995 21.5909 592.677 20.9545 596.859 20.9545C599.768 20.9545 602.552 21.2955 605.211 21.9773C607.893 22.6591 610.268 23.7159 612.336 25.1477C614.427 26.5795 616.075 28.4205 617.279 30.6705C618.484 32.8977 619.086 35.5682 619.086 38.6818V74H605.313V66.7386H604.904C604.063 68.375 602.938 69.8182 601.529 71.0682C600.12 72.2955 598.427 73.2614 596.45 73.9659C594.472 74.6477 592.188 74.9886 589.597 74.9886ZM593.756 64.9659C595.893 64.9659 597.779 64.5455 599.415 63.7045C601.052 62.8409 602.336 61.6818 603.268 60.2273C604.2 58.7727 604.665 57.125 604.665 55.2841V49.7273C604.211 50.0227 603.586 50.2955 602.79 50.5455C602.018 50.7727 601.143 50.9886 600.165 51.1932C599.188 51.375 598.211 51.5455 597.234 51.7045C596.256 51.8409 595.37 51.9659 594.575 52.0795C592.87 52.3295 591.381 52.7273 590.109 53.2727C588.836 53.8182 587.847 54.5568 587.143 55.4886C586.438 56.3977 586.086 57.5341 586.086 58.8977C586.086 60.875 586.802 62.3864 588.234 63.4318C589.688 64.4545 591.529 64.9659 593.756 64.9659ZM624.593 74V21.6364H639.116V74H624.593ZM631.888 14.8864C629.729 14.8864 627.877 14.1705 626.332 12.7386C624.809 11.2841 624.047 9.54545 624.047 7.52272C624.047 5.52272 624.809 3.80682 626.332 2.375C627.877 0.920452 629.729 0.193178 631.888 0.193178C634.047 0.193178 635.888 0.920452 637.411 2.375C638.957 3.80682 639.729 5.52272 639.729 7.52272C639.729 9.54545 638.957 11.2841 637.411 12.7386C635.888 14.1705 634.047 14.8864 631.888 14.8864Z" fill="url(#paint0_linear_623_42)"/>
<defs>
<linearGradient id="paint0_linear_623_42" x1="320" y1="-19" x2="320" y2="97" gradientUnits="userSpaceOnUse">
<stop/>
<stop offset="0.822115" stop-color="#1A1A1A" stop-opacity="0.8"/>
</linearGradient>
</defs>
</svg>
